<svg width="552" height="97" viewBox="0 0 552 97" fill="none" xmlns="http://www.w3.org/2000/svg">
<path fill-rule="evenodd" clip-rule="evenodd" d="M29.758 92.8448C35.7536 95.3137 42.2783 96.548 49.3321 96.548C56.2095 96.548 62.6019 95.3137 68.5094 92.8448C74.5051 90.376 79.7072 86.9814 84.1158 82.661C88.5244 78.2524 91.9631 73.1385 94.4319 67.3191C96.9007 61.4116 98.1351 55.0633 98.1351 48.274C98.1351 48.1416 98.1347 48.0093 98.1338 47.8773H110.655V94.961H130.891V47.8773H146.419V94.961H166.655V58.3967C166.963 57.1163 167.417 55.9192 168.017 54.8053C169.163 52.5129 170.839 50.7494 173.043 49.515C175.159 48.1924 177.628 47.5312 180.449 47.5312C183.271 47.5312 185.784 48.1924 187.988 49.515C188.243 49.6635 188.491 49.8197 188.735 49.9835C188.735 49.9835 191.429 44.4716 193.526 41.4164C195.949 37.8842 200.552 33.6441 200.552 33.6441C195.879 30.7344 190.589 29.2796 184.682 29.2796C180.361 29.2796 176.482 30.1172 173.043 31.7925C170.595 32.9552 168.466 34.4365 166.655 36.2364V30.6838H130.891V4.09999H110.655V30.6838H95.0192C94.8319 30.1952 94.6361 29.7103 94.4319 29.2289C91.9631 23.3214 88.4803 18.2075 83.9836 13.8871C79.575 9.47846 74.3729 6.08385 68.3772 3.70321C62.4697 1.2344 56.0331 0 49.0676 0C42.0138 0 35.4891 1.2344 29.4934 3.70321C23.5859 6.08385 18.4279 9.47846 14.0193 13.8871C9.61072 18.2075 6.17202 23.2773 3.70321 29.0967C1.2344 34.916 0 41.2644 0 48.1418C0 54.931 1.2344 61.2794 3.70321 67.1869C6.17202 73.0062 9.65481 78.1202 14.1516 82.5288C18.6483 86.9373 23.8505 90.376 29.758 92.8448ZM63.6159 73.932C59.4718 76.4008 54.6224 77.6352 49.0676 77.6352C44.9235 77.6352 41.1321 76.9298 37.6934 75.5191C34.2547 74.1084 31.301 72.1245 28.8322 69.5675C26.4515 66.9223 24.5999 63.7923 23.2773 60.1772C21.9548 56.5622 21.2935 52.5504 21.2935 48.1418C21.2935 42.2343 22.4397 37.1203 24.7322 32.7999C27.0246 28.3913 30.2429 24.9967 34.387 22.6161C38.6192 20.1472 43.5128 18.9128 49.0676 18.9128C53.2116 18.9128 56.9589 19.6182 60.3095 21.029C63.7482 22.3515 66.7019 24.3354 69.1707 26.9806C71.6395 29.5375 73.5352 32.6235 74.8578 36.2386C76.1804 39.7655 76.8417 43.7332 76.8417 48.1418C76.8417 53.9611 75.6954 59.1192 73.403 63.6159C71.1105 68.0245 67.8481 71.4632 63.6159 73.932Z" fill="white"/>
<path fill-rule="evenodd" clip-rule="evenodd" d="M204.095 91.919C208.768 94.8287 214.059 96.2835 219.966 96.2835C224.286 96.2835 228.21 95.4459 231.737 93.7706C234.015 92.6885 235.999 91.3489 237.689 89.7517V94.961H257.527V30.6838H237.689V36.0216C235.945 34.3549 233.917 32.9724 231.605 31.8741C228.166 30.1988 224.286 29.3612 219.966 29.3612C214.059 29.3612 208.768 30.816 204.095 33.7257C199.51 36.6354 195.851 40.6031 193.118 45.6289C190.473 50.6547 189.15 56.3858 189.15 62.8224C189.15 69.2589 190.473 74.9901 193.118 80.0159C195.851 85.0416 199.51 89.0094 204.095 91.919ZM234.514 73.7998C231.869 76.6212 228.386 78.032 224.066 78.032C221.333 78.032 218.864 77.3707 216.66 76.0481C214.455 74.7256 212.736 72.918 211.502 70.6256C210.267 68.3331 209.65 65.732 209.65 62.8224C209.65 59.8245 210.267 57.1794 211.502 54.8869C212.824 52.5944 214.544 50.831 216.66 49.5966C218.864 48.274 221.377 47.6127 224.198 47.6127C227.02 47.6127 229.489 48.274 231.605 49.5966C233.809 50.831 235.484 52.5944 236.631 54.8869C237.865 57.1794 238.482 59.8245 238.482 62.8224C238.482 67.2309 237.16 70.8901 234.514 73.7998Z" fill="white"/>
<path fill-rule="evenodd" clip-rule="evenodd" d="M286.455 94.961V56.474H288.626L316.478 94.961H341.078L311.166 55.8018C314.344 55.2363 317.26 54.3142 319.917 53.0353C324.678 50.7428 328.381 47.5687 331.026 43.5128C333.671 39.3687 334.994 34.5633 334.994 29.0967C334.994 23.7182 333.671 18.9569 331.026 14.8129C328.381 10.6688 324.722 7.45051 320.049 5.15805C315.376 2.77741 309.953 1.58709 303.781 1.58709H265.691V94.961H286.455ZM301.268 41.1321H286.455V17.7225H301.401C305.545 17.7225 308.719 18.8247 310.923 21.029C313.127 23.2333 314.23 26.0107 314.23 29.3612C314.23 32.9762 313.083 35.8418 310.791 37.9579C308.587 40.0741 305.412 41.1321 301.268 41.1321Z" fill="white"/>
<path d="M353.59 92.8448C358.175 95.2255 363.421 96.4158 369.328 96.4158C375.236 96.4158 380.438 95.2255 384.935 92.8448C389.431 90.376 392.958 87.0255 395.515 82.7933C398.072 78.4729 399.351 73.4911 399.351 67.8482V47.8773H413.246V94.961H433.482V47.8773H448.03C448.03 47.8773 450.9 42.4855 453.396 39.2746C456.443 35.3537 462.664 30.6838 462.664 30.6838H433.482V4.09999H413.246V30.6838H379.115V67.7159C379.115 71.0664 378.234 73.7116 376.47 75.6514C374.707 77.503 372.326 78.4288 369.328 78.4288C367.212 78.4288 365.405 77.9879 363.906 77.1062C362.407 76.2245 361.261 74.9901 360.467 73.403C359.762 71.8159 359.409 69.9202 359.409 67.7159V30.6838H339.174V67.9804C339.174 73.5352 340.452 78.4729 343.009 82.7933C345.566 87.0255 349.093 90.376 353.59 92.8448Z" fill="white"/>
<path fill-rule="evenodd" clip-rule="evenodd" d="M462.664 91.919C467.337 94.8287 472.627 96.2835 478.535 96.2835C482.855 96.2835 486.779 95.4459 490.306 93.7706C492.584 92.6885 494.568 91.3488 496.257 89.7516V94.961H516.096V30.6838H496.257V36.0216C494.514 34.3549 492.486 32.9724 490.174 31.8741C486.735 30.1988 482.855 29.3612 478.535 29.3612C472.627 29.3612 467.337 30.816 462.664 33.7257C458.079 36.6354 454.42 40.6031 451.687 45.6289C449.041 50.6547 447.719 56.3858 447.719 62.8224C447.719 69.2589 449.041 74.9901 451.687 80.0159C454.42 85.0416 458.079 89.0094 462.664 91.919ZM493.083 73.7998C490.438 76.6212 486.955 78.032 482.635 78.032C479.902 78.032 477.433 77.3707 475.228 76.0481C473.024 74.7256 471.305 72.918 470.07 70.6256C468.836 68.3331 468.219 65.732 468.219 62.8224C468.219 59.8245 468.836 57.1794 470.07 54.8869C471.393 52.5944 473.112 50.831 475.228 49.5966C477.433 48.274 479.946 47.6127 482.767 47.6127C485.589 47.6127 488.057 48.274 490.174 49.5966C492.378 50.831 494.053 52.5944 495.199 54.8869C496.434 57.1794 497.051 59.8245 497.051 62.8224C497.051 67.2309 495.728 70.8901 493.083 73.7998Z" fill="white"/>
<circle cx="537.9" cy="82.4056" r="13.5833" fill="#D1E48F"/>
</svg>
